HIERARCHY
ROOT spine
{
	OFFSET 0.000000 0.154968 -0.263600
	CHANNELS 6 Xposition Yposition Zposition Xrotation Yrotation Zrotation
	JOINT spine.001
	{
		OFFSET 0.000893 -0.026998 0.408610
		CHANNELS 6 Xposition Yposition Zposition Xrotation Yrotation Zrotation
		JOINT spine.002
		{
			OFFSET -0.001786 0.013532 0.362280
			CHANNELS 6 Xposition Yposition Zposition Xrotation Yrotation Zrotation
			JOINT spine.003
			{
				OFFSET 0.000893 0.042056 0.425966
				CHANNELS 3 Xrotation Yrotation Zrotation
				JOINT spine.004
				{
					OFFSET 0.000000 -0.005392 0.472255
					CHANNELS 6 Xposition Yposition Zposition Xrotation Yrotation Zrotation
					JOINT spine.005
					{
						OFFSET 0.000000 -0.061434 0.155824
						CHANNELS 3 Xrotation Yrotation Zrotation
						JOINT spine.006
						{
							OFFSET 0.000000 -0.032455 0.150272
							CHANNELS 3 Xrotation Yrotation Zrotation
							End Site
							{
								OFFSET 0.000000 -0.001669 -0.000146
							}
						}
						End Site
						{
							OFFSET 0.000000 -0.000131 0.002509
						}
					}
				}
				JOINT shoulder.R
				{
					OFFSET -0.043345 -0.202788 0.335669
					CHANNELS 6 Xposition Yposition Zposition Xrotation Yrotation Zrotation
					JOINT upper_arm.R
					{
						OFFSET -0.519228 0.179734 -0.036948
						CHANNELS 6 Xposition Yposition Zposition Xrotation Yrotation Zrotation
						JOINT forearm.R
						{
							OFFSET -0.528523 -0.077251 -0.416569
							CHANNELS 6 Xposition Yposition Zposition Xrotation Yrotation Zrotation
							JOINT hand.R
							{
								OFFSET -0.481050 -0.042096 -0.445385
								CHANNELS 6 Xposition Yposition Zposition Xrotation Yrotation Zrotation
								JOINT f_index.01.R
								{
									OFFSET -0.213527 -0.126870 -0.176361
									CHANNELS 3 Xrotation Yrotation Zrotation
									JOINT f_index.02.R
									{
										OFFSET -0.048221 -0.023698 -0.075329
										CHANNELS 3 Xrotation Yrotation Zrotation
										JOINT f_index.03.R
										{
											OFFSET -0.015178 -0.033369 -0.084421
											CHANNELS 3 Xrotation Yrotation Zrotation
											End Site
											{
												OFFSET -0.015179 -0.033369 -0.084421
											}
										}
									}
								}
								JOINT f_middle.01.R
								{
									OFFSET -0.221745 -0.075394 -0.180233
									CHANNELS 3 Xrotation Yrotation Zrotation
									JOINT f_middle.02.R
									{
										OFFSET -0.053046 -0.019683 -0.094497
										CHANNELS 3 Xrotation Yrotation Zrotation
										JOINT f_middle.03.R
										{
											OFFSET -0.010312 -0.033905 -0.110493
											CHANNELS 3 Xrotation Yrotation Zrotation
											End Site
											{
												OFFSET -0.010313 -0.033905 -0.110493
											}
										}
									}
								}
								JOINT f_ring.01.R
								{
									OFFSET -0.229786 -0.013812 -0.181801
									CHANNELS 3 Xrotation Yrotation Zrotation
									JOINT f_ring.02.R
									{
										OFFSET -0.039133 -0.012376 -0.107531
										CHANNELS 3 Xrotation Yrotation Zrotation
										JOINT f_ring.03.R
										{
											OFFSET -0.014465 -0.020186 -0.076705
											CHANNELS 3 Xrotation Yrotation Zrotation
											End Site
											{
												OFFSET -0.014466 -0.020185 -0.076705
											}
										}
									}
								}
								JOINT f_pinky.01.R
								{
									OFFSET -0.227986 0.047728 -0.194863
									CHANNELS 3 Xrotation Yrotation Zrotation
									JOINT f_pinky.02.R
									{
										OFFSET -0.025024 0.006131 -0.071314
										CHANNELS 3 Xrotation Yrotation Zrotation
										JOINT f_pinky.03.R
										{
											OFFSET -0.012918 -0.013342 -0.075488
											CHANNELS 3 Xrotation Yrotation Zrotation
											End Site
											{
												OFFSET -0.012919 -0.013342 -0.075488
											}
										}
									}
								}
								JOINT thumb.01.R
								{
									OFFSET -0.027674 -0.089158 -0.093039
									CHANNELS 3 Xrotation Yrotation Zrotation
									JOINT thumb.02.R
									{
										OFFSET -0.032825 -0.062806 -0.081582
										CHANNELS 3 Xrotation Yrotation Zrotation
										JOINT thumb.03.R
										{
											OFFSET -0.041249 -0.020716 -0.071132
											CHANNELS 3 Xrotation Yrotation Zrotation
											End Site
											{
												OFFSET -0.041250 -0.020716 -0.071132
											}
										}
									}
								}
							}
						}
					}
				}
				JOINT shoulder.L
				{
					OFFSET 0.043345 -0.202788 0.335668
					CHANNELS 6 Xposition Yposition Zposition Xrotation Yrotation Zrotation
					JOINT upper_arm.L
					{
						OFFSET 0.519228 0.179734 -0.036948
						CHANNELS 6 Xposition Yposition Zposition Xrotation Yrotation Zrotation
						JOINT forearm.L
						{
							OFFSET 0.528523 -0.077252 -0.416569
							CHANNELS 6 Xposition Yposition Zposition Xrotation Yrotation Zrotation
							JOINT hand.L
							{
								OFFSET 0.481049 -0.042096 -0.445384
								CHANNELS 6 Xposition Yposition Zposition Xrotation Yrotation Zrotation
								JOINT f_index.01.L
								{
									OFFSET 0.213527 -0.126870 -0.176361
									CHANNELS 3 Xrotation Yrotation Zrotation
									JOINT f_index.02.L
									{
										OFFSET 0.048221 -0.023698 -0.075329
										CHANNELS 3 Xrotation Yrotation Zrotation
										JOINT f_index.03.L
										{
											OFFSET 0.015178 -0.033370 -0.084421
											CHANNELS 3 Xrotation Yrotation Zrotation
											End Site
											{
												OFFSET 0.015178 -0.033370 -0.084420
											}
										}
									}
								}
								JOINT f_middle.01.L
								{
									OFFSET 0.221745 -0.075394 -0.180233
									CHANNELS 3 Xrotation Yrotation Zrotation
									JOINT f_middle.02.L
									{
										OFFSET 0.053045 -0.019683 -0.094497
										CHANNELS 3 Xrotation Yrotation Zrotation
										JOINT f_middle.03.L
										{
											OFFSET 0.010312 -0.033905 -0.110494
											CHANNELS 3 Xrotation Yrotation Zrotation
											End Site
											{
												OFFSET 0.010313 -0.033906 -0.110493
											}
										}
									}
								}
								JOINT f_ring.01.L
								{
									OFFSET 0.229786 -0.013812 -0.181801
									CHANNELS 3 Xrotation Yrotation Zrotation
									JOINT f_ring.02.L
									{
										OFFSET 0.039134 -0.012376 -0.107530
										CHANNELS 3 Xrotation Yrotation Zrotation
										JOINT f_ring.03.L
										{
											OFFSET 0.014464 -0.020186 -0.076705
											CHANNELS 3 Xrotation Yrotation Zrotation
											End Site
											{
												OFFSET 0.014465 -0.020186 -0.076705
											}
										}
									}
								}
								JOINT f_pinky.01.L
								{
									OFFSET 0.227987 0.047728 -0.194862
									CHANNELS 3 Xrotation Yrotation Zrotation
									JOINT f_pinky.02.L
									{
										OFFSET 0.025023 0.006131 -0.071314
										CHANNELS 3 Xrotation Yrotation Zrotation
										JOINT f_pinky.03.L
										{
											OFFSET 0.012918 -0.013342 -0.075488
											CHANNELS 3 Xrotation Yrotation Zrotation
											End Site
											{
												OFFSET 0.012920 -0.013342 -0.075487
											}
										}
									}
								}
								JOINT thumb.01.L
								{
									OFFSET 0.027674 -0.089159 -0.093039
									CHANNELS 3 Xrotation Yrotation Zrotation
									JOINT thumb.02.L
									{
										OFFSET 0.032825 -0.062806 -0.081582
										CHANNELS 3 Xrotation Yrotation Zrotation
										JOINT thumb.03.L
										{
											OFFSET 0.041249 -0.020716 -0.071132
											CHANNELS 3 Xrotation Yrotation Zrotation
											End Site
											{
												OFFSET 0.041250 -0.020716 -0.071132
											}
										}
									}
								}
							}
						}
					}
				}
			}
		}
	}
	JOINT thigh.R
	{
		OFFSET -0.264550 -0.101375 0.220597
		CHANNELS 6 Xposition Yposition Zposition Xrotation Yrotation Zrotation
		JOINT shin.R
		{
			OFFSET -0.036635 -0.070848 -1.193411
			CHANNELS 6 Xposition Yposition Zposition Xrotation Yrotation Zrotation
			JOINT foot.R
			{
				OFFSET -0.072166 0.106113 -1.145243
				CHANNELS 3 Xrotation Yrotation Zrotation
				JOINT toe.R
				{
					OFFSET 0.001766 -0.383954 -0.117691
					CHANNELS 6 Xposition Yposition Zposition Xrotation Yrotation Zrotation
					End Site
					{
						OFFSET 0.001766 -0.383955 -0.117692
					}
				}
			}
		}
	}
	JOINT thigh.L
	{
		OFFSET 0.264550 -0.101375 0.220597
		CHANNELS 6 Xposition Yposition Zposition Xrotation Yrotation Zrotation
		JOINT shin.L
		{
			OFFSET 0.036635 -0.070848 -1.193411
			CHANNELS 6 Xposition Yposition Zposition Xrotation Yrotation Zrotation
			JOINT foot.L
			{
				OFFSET 0.072166 0.106112 -1.145242
				CHANNELS 3 Xrotation Yrotation Zrotation
				JOINT toe.L
				{
					OFFSET -0.001766 -0.383951 -0.117693
					CHANNELS 6 Xposition Yposition Zposition Xrotation Yrotation Zrotation
					End Site
					{
						OFFSET -0.001765 -0.383952 -0.117694
					}
				}
			}
		}
	}
}
MOTION
Frames: 6
Frame Time:	0.016667
0 0.155 -0.2636 0 0 0 0.0009 -0.027 0.4086 0 0 0 -0.0018 0.0135 0.3623 0 0 0 0 0 0 0 -0.0054 0.4723 0 0 0 0 0 0 0 0 0 -0.0433 -0.2028 0.3357 0 0 0 -0.5192 0.1797 -0.0369 0 0 0 -0.5285 -0.0773 -0.4166 0 0 0 -0.4811 -0.0421 -0.4454 0 0 0 0 0 0 0 0 0 17.5932 -44.5775 15.7358 0 0 0 0 0 0 90.8022 -67.3663 93.009 0 0 0 0 0 0 -70.8842 -108.7371 -69.0176 0 0 0 0 0 0 82.955 -80.8987 85.0077 0 0 0 0 0 0 47.7972 2.7125 -38.0883 0.0433 -0.2028 0.3357 0 0 0 0.5192 0.1797 -0.0369 0 0 0 0.5285 -0.0773 -0.4166 0 0 0 0.481 -0.0421 -0.4454 0 0 0 0 0 0 0 0 0 17.5922 44.5767 -15.7349 0 0 0 0 0 0 90.7991 67.3668 -93.0058 0 0 0 0 0 0 -70.8782 108.7382 69.0112 0 0 0 0 0 0 82.9596 80.8986 -85.0126 0 0 0 0 0 0 47.7978 -2.7124 38.0883 -0.2645 -0.1014 0.2206 0 0 0 -0.0366 -0.0708 -1.1934 0 0 0 0 0 0 0.0018 -0.384 -0.1177 0.0001 0 0 0.2645 -0.1014 0.2206 0 0 0 0.0366 -0.0708 -1.1934 0 0 0 0 0 0 -0.0018 -0.384 -0.1177 0 0 0 
0.3256 0.1282 2.3099 0.0611 -1.0371 -15.0352 0.0033 -0.0272 0.4074 -3.3836 -1.8845 -2.348 0.0026 0.0133 0.3622 -4.3344 -2.5879 -6.3756 0 0 0 0 -0.005 0.4725 -24.5228 -4.2805 11.1248 29.3275 3.2198 10.7231 0 0 0 -0.0433 -0.2026 0.3355 -4.3313 -11.7143 1.1194 -0.5192 0.1797 -0.0369 -6.6568 -27.4766 27.9016 -0.5285 -0.0772 -0.4166 -60.9439 -37.1583 74.2787 -0.4811 -0.0421 -0.4454 -3.9695 23.67 -5.4542 7.5401 -45.0188 14.2972 17.49 -41.5748 9.06 17.5933 -44.5775 15.7358 17.4644 -69.0118 27.9303 53.0329 -67.7603 47.7789 90.8022 -67.3662 93.009 -1.0963 -59.7774 2.3577 75.6134 -75.3192 71.3017 -70.8842 -108.7371 -69.0176 -21.361 -49.5312 -10.2526 32.6066 -77.1939 23.0059 82.9546 -80.8987 85.0075 16.4655 -17.2939 13.0598 23.5141 5.0961 -20.3949 47.7973 2.7124 -38.0883 0.0433 -0.2026 0.3355 -5.0901 12.2589 -3.4062 0.5192 0.1797 -0.0369 -1.5067 52.3683 -80.4273 0.5303 -0.0775 -0.418 -16.5635 -4.2422 10.1528 0.4827 -0.0422 -0.4469 -48.1463 -15.3617 -86.3977 7.5404 45.0193 -14.2975 17.4902 41.5759 -9.0607 17.5923 44.5767 -15.7349 17.4636 69.0115 -27.9297 53.0368 67.7613 -47.7833 90.7992 67.3668 -93.0059 -1.0961 59.7783 -2.358 75.6087 75.319 -71.2972 -70.8781 108.7382 69.0112 -21.36 49.5299 10.2521 32.6035 77.1924 -23.0028 82.9596 80.8986 -85.0126 -23.4529 8.5988 -5.6019 0.879 -0.6266 4.0769 55.7353 -0.1885 43.6945 -0.2645 -0.1014 0.2206 -6.1197 7.3475 -1.7041 -0.0366 -0.0708 -1.1934 -3.6263 -1.9411 -0.0128 1.7867 -0.8496 4.6369 0.0018 -0.384 -0.1177 0.0001 0 0 0.2645 -0.1014 0.2206 -12.8729 -0.2946 1.687 0.0366 -0.0708 -1.1934 15.5501 2.4448 0.8688 -6.157 -3.9996 -6.0445 -0.0018 -0.384 -0.1177 -0.0001 0 0 
0.3256 0.1282 2.3099 0.0611 -1.0371 -15.0352 0.0033 -0.0272 0.4074 -3.3836 -1.8845 -2.348 0.0026 0.0133 0.3622 -4.3344 -2.5879 -6.3756 0 0 0 0 -0.005 0.4725 -24.5228 -4.2805 11.1248 29.3275 3.2198 10.7231 0 0 0 -0.0433 -0.2026 0.3355 -4.3313 -11.7143 1.1194 -0.5192 0.1797 -0.0369 -6.6568 -27.4766 27.9016 -0.5285 -0.0773 -0.4166 -60.9439 -37.1583 74.2787 -0.4811 -0.0421 -0.4454 -3.9695 23.67 -5.4542 7.5401 -45.0188 14.2972 17.49 -41.5748 9.06 17.5933 -44.5774 15.7358 17.4644 -69.0118 27.9303 53.0329 -67.7603 47.7789 90.8022 -67.3662 93.009 -1.0963 -59.7774 2.3578 75.6134 -75.3191 71.3016 -70.8842 -108.7371 -69.0176 -21.361 -49.5312 -10.2526 32.6066 -77.1939 23.0058 82.9547 -80.8987 85.0076 16.4655 -17.2939 13.0598 23.5142 5.0961 -20.3949 47.7972 2.7125 -38.0883 0.0433 -0.2026 0.3355 -5.0901 12.2589 -3.4062 0.5192 0.1797 -0.0369 -1.5067 52.3683 -80.4273 0.5303 -0.0775 -0.418 -16.5635 -4.2422 10.1528 0.4827 -0.0422 -0.4469 -48.1463 -15.3617 -86.3977 7.5404 45.0193 -14.2976 17.4902 41.5759 -9.0607 17.5922 44.5767 -15.7349 17.4636 69.0115 -27.9298 53.0367 67.7613 -47.7833 90.7992 67.3668 -93.0059 -1.0961 59.7783 -2.358 75.6087 75.319 -71.2973 -70.8781 108.7382 69.0112 -21.36 49.5299 10.2521 32.6035 77.1924 -23.0028 82.9597 80.8986 -85.0126 -23.4529 8.5988 -5.602 0.879 -0.6266 4.0768 55.7353 -0.1885 43.6945 -0.2645 -0.1014 0.2206 -6.1197 7.3475 -1.7041 -0.0366 -0.0708 -1.1934 -3.6263 -1.9411 -0.0128 1.7867 -0.8496 4.6369 0.0018 -0.384 -0.1177 0.0001 0 0 0.2645 -0.1014 0.2206 -12.8729 -0.2946 1.687 0.0366 -0.0708 -1.1934 15.5501 2.4448 0.8688 -6.157 -3.9996 -6.0445 -0.0018 -0.384 -0.1177 -0.0001 0 0 
0.3257 0.1279 2.3084 0.0611 -1.0371 -15.0352 0.0033 -0.0272 0.4074 -3.3626 -1.8504 -2.3484 0.0026 0.0133 0.3622 -4.3136 -2.5543 -6.3735 0 0 0 0 -0.005 0.4725 -24.5619 -4.2941 11.1228 29.3066 3.0984 10.7089 0 0 0 -0.0433 -0.2025 0.3355 -4.3374 -11.7167 1.1424 -0.5192 0.1797 -0.0369 -6.4697 -27.9487 28.1137 -0.5285 -0.0773 -0.4166 -60.8314 -37.2859 74.2998 -0.4811 -0.0421 -0.4454 -3.8932 23.8769 -5.7956 7.5401 -45.0188 14.2971 17.49 -41.5749 9.06 17.5933 -44.5775 15.7358 17.4643 -69.0117 27.9302 53.0329 -67.7603 47.7791 90.8022 -67.3663 93.009 -1.0963 -59.7774 2.3577 75.6135 -75.3192 71.3016 -70.8841 -108.7371 -69.0176 -21.361 -49.5312 -10.2526 32.6065 -77.1939 23.0058 82.9547 -80.8987 85.0076 14.1745 -16.0312 10.8423 23.5141 5.0961 -20.3949 47.7973 2.7125 -38.0883 0.0433 -0.2025 0.3355 -5.08 12.252 -3.3762 0.5192 0.1797 -0.0369 -1.8646 52.1202 -80.1381 0.53 -0.0775 -0.4177 -16.4322 -4.2305 10.0417 0.4824 -0.0422 -0.4466 -47.8043 -15.9133 -86.2532 7.5404 45.0193 -14.2975 17.4903 41.576 -9.0607 17.5923 44.5768 -15.7349 17.4636 69.0115 -27.9297 53.0368 67.7613 -47.7833 90.7991 67.3668 -93.006 -1.0961 59.7783 -2.358 75.6087 75.319 -71.2972 -70.8783 108.7383 69.011 -21.36 49.5299 10.2521 32.6037 77.1923 -23.0028 82.9595 80.8986 -85.0127 -23.4529 8.5988 -5.602 0.879 -0.6267 4.0769 55.7353 -0.1885 43.6946 -0.2645 -0.1014 0.2206 -6.782 7.3863 -1.6252 -0.0366 -0.0708 -1.1934 -2.2851 -1.9597 -0.077 1.1052 -0.8493 4.7294 0.0018 -0.384 -0.1177 0.0001 0 0 0.2645 -0.1014 0.2206 -13.044 -0.304 1.6865 0.0366 -0.0708 -1.1934 15.9081 2.457 0.883 -6.3453 -4.0022 -6.0688 -0.0018 -0.384 -0.1177 0 0 0 
0.3257 0.1278 2.3076 0.0611 -1.0371 -15.0352 0.0033 -0.0272 0.4074 -3.3521 -1.8334 -2.3486 0.0026 0.0133 0.3622 -4.3032 -2.5375 -6.3725 0 0 0 0 -0.005 0.4725 -24.5814 -4.3009 11.1218 29.2961 3.0377 10.7018 0 0 0 -0.0433 -0.2025 0.3355 -4.3404 -11.7179 1.1539 -0.5192 0.1797 -0.0369 -6.3753 -28.1844 28.2208 -0.5285 -0.0772 -0.4166 -60.7749 -37.3495 74.3102 -0.4811 -0.0421 -0.4454 -3.8552 23.9811 -5.966 7.5401 -45.0188 14.2972 17.49 -41.5749 9.06 17.5933 -44.5775 15.7358 17.4643 -69.0117 27.9303 53.0329 -67.7603 47.779 90.8022 -67.3662 93.009 -1.0963 -59.7774 2.3578 75.6133 -75.3192 71.3016 -70.8841 -108.7371 -69.0176 -21.361 -49.5312 -10.2526 32.6063 -77.1939 23.0058 82.9546 -80.8987 85.0074 14.1744 -16.0312 10.8423 23.5142 5.0961 -20.3949 47.7972 2.7125 -38.0883 0.0433 -0.2025 0.3355 -5.0749 12.2486 -3.3611 0.5192 0.1797 -0.0369 -2.0422 51.9959 -79.9951 0.5299 -0.0774 -0.4176 -16.3668 -4.2248 9.9859 0.4823 -0.0422 -0.4465 -47.6309 -16.1879 -86.179 7.5404 45.0193 -14.2976 17.4902 41.5759 -9.0607 17.5923 44.5767 -15.7349 17.4636 69.0115 -27.9298 53.0368 67.7613 -47.7833 90.7992 67.3668 -93.0059 -1.0961 59.7783 -2.358 75.6087 75.319 -71.2973 -70.8781 108.7383 69.0111 -21.36 49.53 10.2521 32.6035 77.1924 -23.0028 82.9597 80.8986 -85.0125 -23.4529 8.5988 -5.6019 0.879 -0.6267 4.0768 55.7352 -0.1885 43.6945 -0.2645 -0.1014 0.2206 -7.1132 7.4054 -1.5856 -0.0366 -0.0708 -1.1934 -1.6144 -1.9692 -0.1088 0.7643 -0.8495 4.7756 0.0018 -0.384 -0.1177 0.0001 0 0 0.2645 -0.1014 0.2206 -13.1295 -0.3087 1.6863 0.0366 -0.0708 -1.1934 16.0871 2.4631 0.8901 -6.4394 -4.0035 -6.0809 -0.0018 -0.384 -0.1177 -0.0001 0 0 
0.3257 0.123 2.2993 0.0643 -0.9867 -15.0847 0.0032 -0.0273 0.4074 -3.3373 -1.7163 -2.2785 0.0025 0.0133 0.3622 -4.2881 -2.414 -6.1683 0 0 0 0 -0.0049 0.4724 -24.6817 -4.3188 11.0703 29.7775 2.2243 10.4721 0 0 0 -0.0433 -0.2025 0.3355 -4.3359 -11.7156 1.137 -0.5192 0.1797 -0.0369 -6.3293 -28.3012 28.1672 -0.5285 -0.0773 -0.4166 -60.9613 -37.7022 74.5502 -0.4811 -0.0421 -0.4454 -3.329 24.3 -7.026 7.5401 -45.0188 14.2971 17.49 -41.5749 9.06 17.5933 -44.5774 15.7357 17.4645 -69.0117 27.9302 53.0329 -67.7602 47.7789 90.8021 -67.3663 93.009 -1.0962 -59.7774 2.3577 75.6134 -75.3191 71.3015 -70.8844 -108.7372 -69.0177 -21.3609 -49.5311 -10.2527 32.6067 -77.1938 23.0057 82.9546 -80.8987 85.0075 14.1745 -16.0312 10.8423 23.5141 5.0961 -20.3949 47.7973 2.7125 -38.0883 0.0433 -0.2025 0.3355 -5.0708 12.2445 -3.3512 0.5192 0.1797 -0.0369 -1.9116 52.0085 -80.1217 0.5296 -0.0774 -0.4174 -16.2606 -4.2159 9.8957 0.4821 -0.0422 -0.4463 -47.0139 -16.8401 -86.0236 7.5404 45.0193 -14.2975 17.4902 41.5759 -9.0607 17.5922 44.5767 -15.7349 17.4636 69.0115 -27.9297 53.0368 67.7613 -47.7833 90.7991 67.3668 -93.0059 -1.0961 59.7783 -2.358 75.6088 75.3191 -71.2973 -70.8783 108.7382 69.0112 -21.36 49.5299 10.2521 32.6038 77.1923 -23.0028 82.9595 80.8986 -85.0127 -23.4529 8.5988 -5.602 0.879 -0.6267 4.0769 55.7353 -0.1885 43.6946 -0.2645 -0.1014 0.2206 -8.2931 7.3086 -1.6904 -0.0366 -0.0708 -1.1934 0.8291 -2.023 -0.2224 -0.4891 -0.6996 4.8831 0.0018 -0.384 -0.1177 0.0001 0 0 0.2645 -0.1014 0.2206 -13.5006 -0.251 1.341 0.0366 -0.0708 -1.1934 16.9372 2.4407 0.9261 -6.8828 -4.0571 -6.2447 -0.0018 -0.384 -0.1177 0 0 0 
